<?xml version="1.0" standalone="no"?>
<!DOCTYPE svg PUBLIC "-//W3C//DTD SVG 20010904//EN"
 "http://www.w3.org/TR/2001/REC-SVG-20010904/DTD/svg10.dtd">
<svg version="1.0" xmlns="http://www.w3.org/2000/svg"
 width="586.000000pt" height="586.000000pt" viewBox="0 0 586.000000 586.000000"
 preserveAspectRatio="xMidYMid meet">
<metadata>
Created by potrace 1.11, written by Peter Selinger 2001-2013
</metadata>
<g transform="translate(0.000000,586.000000) scale(0.100000,-0.100000)"
fill="#000000" stroke="none">
<path d="M2724 5501 c-2 -3 -30 -6 -62 -7 -63 -4 -114 -9 -182 -20 -25 -4 -60
-7 -77 -8 -18 -1 -33 -4 -33 -7 0 -3 -6 -6 -12 -6 -13 -1 -51 -8 -98 -18 -14
-3 -36 -8 -49 -11 -14 -3 -28 -7 -33 -10 -7 -5 -17 -7 -63 -17 -5 -2 -14 -5
-20 -9 -8 -4 -99 -33 -137 -44 -5 -1 -11 -3 -15 -4 -5 -1 -11 -2 -15 -1 -5 0
-8 -3 -8 -9 0 -5 -3 -9 -7 -8 -5 1 -24 -4 -43 -11 -19 -8 -38 -14 -41 -15 -14
-2 -85 -42 -91 -51 -4 -5 -8 -6 -8 -2 0 9 -103 -44 -108 -56 -2 -4 -7 -5 -12
-2 -5 3 -16 -2 -24 -11 -9 -8 -16 -12 -16 -8 0 4 -9 -1 -20 -11 -12 -11 -27
-20 -35 -21 -20 -3 -225 -145 -315 -218 -112 -91 -253 -229 -342 -336 -105
-125 -102 -122 -124 -158 -10 -18 -22 -32 -25 -32 -4 0 -11 -9 -14 -20 -3 -11
-12 -26 -19 -32 -24 -25 -110 -175 -173 -303 -36 -71 -69 -138 -74 -147 -5
-10 -9 -25 -9 -33 0 -8 -5 -15 -10 -15 -6 0 -9 -3 -9 -7 1 -5 1 -10 -1 -13 -1
-3 -4 -16 -6 -30 -3 -14 -9 -27 -14 -28 -6 -2 -8 -7 -5 -12 3 -5 -4 -32 -14
-62 -24 -63 -71 -238 -78 -288 -2 -19 -9 -51 -14 -71 -5 -20 -12 -68 -15 -105
-4 -38 -10 -73 -14 -79 -15 -21 -4 -505 14 -625 10 -63 19 -124 20 -135 2 -11
8 -38 14 -61 7 -22 13 -53 16 -70 2 -16 8 -42 15 -57 6 -16 11 -34 11 -40 0
-7 11 -42 24 -80 14 -37 22 -67 19 -67 -3 0 -1 -6 4 -13 8 -9 30 -65 38 -97
15 -55 187 -387 207 -401 6 -3 9 -10 9 -15 0 -5 9 -19 19 -31 11 -13 17 -23
14 -23 -6 0 51 -84 94 -136 9 -12 45 -57 79 -100 86 -109 370 -384 396 -384 3
0 17 -10 31 -22 35 -33 49 -44 77 -58 13 -7 29 -19 34 -26 6 -7 16 -14 24 -16
7 -2 25 -13 39 -26 14 -12 36 -25 49 -28 13 -4 23 -10 23 -15 0 -5 5 -9 11 -9
6 0 24 -9 40 -21 16 -11 29 -17 29 -13 0 3 15 -5 34 -19 18 -15 36 -23 40 -20
3 4 6 1 6 -5 0 -7 5 -12 10 -12 6 0 38 -13 73 -28 34 -16 65 -28 68 -28 3 1
13 -5 22 -13 10 -7 17 -11 17 -7 0 4 13 0 30 -9 16 -8 32 -15 35 -15 5 0 67
-23 110 -40 26 -10 204 -60 230 -64 50 -8 101 -19 109 -24 5 -3 21 -6 35 -7
41 -3 132 -14 176 -21 74 -12 360 -17 460 -9 117 10 172 17 240 29 22 3 54 9
70 11 17 3 65 13 108 24 42 10 77 16 77 13 0 -2 6 0 13 6 10 8 61 24 92 28 6
0 18 4 27 8 9 4 22 9 30 10 7 2 27 9 43 15 17 7 35 14 40 15 14 4 65 26 96 42
14 7 29 11 33 7 3 -3 6 -1 6 5 0 7 3 11 8 10 4 -1 16 3 27 9 11 6 22 11 25 11
12 0 66 27 72 37 4 5 8 7 8 3 0 -4 16 4 36 17 20 14 42 25 49 25 6 0 21 9 33
20 12 12 22 18 22 15 0 -6 58 31 70 45 3 3 11 6 19 8 15 3 84 53 89 65 2 4 8
7 14 7 24 0 194 144 329 279 137 137 303 336 293 352 -2 4 2 9 10 12 12 5 47
58 97 148 9 16 21 35 28 42 6 8 9 16 6 19 -3 3 6 17 20 32 13 14 24 27 23 29
0 1 8 22 20 47 11 25 20 47 19 50 0 3 11 26 26 53 15 26 24 47 21 47 -4 0 0
10 8 23 8 12 20 42 28 67 7 25 16 50 19 55 3 6 6 15 8 20 1 6 7 26 14 45 21
62 25 73 33 108 3 9 5 18 6 20 2 1 3 5 4 10 1 4 6 23 11 42 5 19 9 42 11 50 1
8 5 26 9 40 4 14 7 33 7 42 -1 10 2 18 6 18 4 0 7 15 8 33 1 30 9 94 20 159
16 98 20 392 7 528 -4 41 -7 90 -7 108 -1 17 -4 32 -8 32 -4 0 -6 13 -4 30 2
16 0 31 -5 32 -4 2 -10 26 -14 53 -7 61 -13 90 -15 90 -2 0 -4 9 -6 20 -5 38
-15 79 -20 87 -7 12 -16 50 -16 71 1 9 -3 17 -7 17 -9 0 -25 54 -24 78 0 6 -4
12 -9 12 -6 0 -8 7 -4 15 3 8 1 15 -4 15 -6 0 -10 9 -10 19 0 11 -5 23 -11 26
-6 4 -8 13 -5 21 3 8 1 14 -4 14 -6 0 -9 3 -8 8 1 4 -3 17 -10 28 -6 12 -8 24
-5 28 3 3 2 6 -3 6 -10 0 -36 59 -31 71 1 3 -6 13 -15 23 -10 10 -18 26 -18
37 0 10 -4 19 -9 19 -5 0 -14 12 -20 28 -15 37 -46 90 -67 113 -9 10 -14 19
-10 19 4 0 -8 22 -28 49 -20 27 -36 52 -36 56 0 24 -198 263 -320 386 -200
201 -393 348 -605 459 -55 29 -106 57 -113 63 -7 5 -15 7 -19 3 -3 -3 -14 1
-24 10 -9 8 -23 17 -31 18 -7 1 -32 12 -55 24 -24 12 -43 20 -43 16 0 -4 -6
-1 -13 5 -8 6 -17 8 -20 4 -4 -3 -7 -1 -7 5 0 7 -3 11 -7 11 -5 -1 -11 0 -15
1 -5 1 -12 4 -18 5 -5 1 -12 4 -15 5 -3 1 -9 4 -15 5 -5 1 -12 4 -15 5 -3 1
-9 4 -15 5 -5 1 -12 4 -15 5 -3 1 -9 4 -15 5 -5 1 -12 4 -15 5 -3 1 -9 4 -15
5 -5 1 -11 3 -12 5 -4 2 -24 7 -62 15 -16 3 -33 8 -38 11 -8 5 -28 10 -78 20
-14 3 -34 8 -45 11 -11 4 -30 6 -42 4 -11 -1 -24 2 -27 7 -3 6 -15 8 -26 5
-11 -3 -20 -1 -20 4 0 5 -17 9 -37 10 -39 1 -118 9 -118 12 0 8 -404 19 -411
12z m56 -57 c0 -2 -16 -4 -35 -4 -19 0 -35 4 -35 8 0 4 16 6 35 4 19 -2 35 -6
35 -8z m-200 -20 c-107 -15 -110 -16 -110 -6 0 4 21 8 48 10 26 2 63 7 82 11
19 4 42 5 50 2 8 -3 -23 -11 -70 -17z m-125 -14 c-3 -4 -26 -11 -52 -14 -27
-4 -55 -9 -63 -11 -8 -2 -26 -6 -40 -8 -14 -3 -26 -6 -27 -6 -2 -1 -5 0 -6 2
-2 1 -11 -4 -21 -12 -9 -8 -19 -11 -23 -8 -3 4 -12 2 -20 -4 -7 -6 -13 -8 -13
-4 0 4 -7 2 -15 -5 -8 -7 -15 -10 -15 -6 0 4 -13 0 -30 -9 -16 -9 -30 -13 -30
-10 0 3 -10 0 -22 -7 -13 -7 -28 -12 -33 -13 -10 0 -58 -19 -137 -54 -21 -9
-38 -20 -38 -24 0 -5 -4 -6 -10 -2 -11 7 -200 -90 -216 -111 -6 -7 -13 -11
-16 -9 -7 8 -213 -132 -305 -206 -114 -93 -274 -251 -363 -359 -90 -109 -164
-210 -154 -210 4 0 -4 -11 -17 -24 -14 -13 -35 -44 -47 -68 -13 -24 -36 -65
-53 -93 -37 -63 -83 -156 -85 -174 -2 -8 -6 -17 -11 -20 -4 -3 -9 -13 -11 -21
-2 -8 -8 -17 -13 -18 -5 -2 -7 -8 -4 -12 3 -5 -3 -28 -14 -52 -18 -39 -32 -74
-36 -88 -2 -11 -27 -86 -32 -100 -10 -24 -12 -33 -19 -70 -3 -19 -10 -36 -14
-38 -5 -2 -6 -10 -3 -18 3 -8 0 -20 -6 -28 -6 -7 -8 -15 -6 -18 3 -3 1 -18 -6
-34 -6 -16 -12 -42 -15 -59 -2 -16 -6 -43 -9 -60 -3 -16 -7 -52 -10 -80 -3
-27 -8 -60 -10 -73 -14 -61 -25 -422 -13 -422 4 0 6 -27 5 -60 -1 -33 1 -61 5
-62 4 -2 8 -36 10 -75 2 -40 6 -73 10 -73 4 0 8 -10 8 -22 0 -54 6 -88 14 -88
4 0 6 -9 3 -20 -3 -11 -1 -20 5 -20 6 0 8 -9 5 -20 -3 -11 -1 -23 4 -26 5 -3
9 -11 8 -17 -1 -7 3 -25 10 -41 6 -16 9 -31 7 -34 -3 -2 2 -18 10 -34 8 -16
12 -33 9 -37 -3 -5 -1 -11 4 -13 5 -1 11 -14 13 -28 1 -14 6 -27 10 -30 4 -3
10 -17 12 -30 2 -14 5 -27 6 -30 2 -3 2 -8 1 -12 0 -5 4 -8 9 -8 6 0 10 -8 10
-18 0 -10 3 -22 8 -26 4 -4 7 -11 8 -14 4 -33 81 -188 163 -325 113 -191 218
-324 391 -498 135 -135 331 -299 379 -317 9 -3 18 -8 21 -12 11 -14 70 -51 70
-44 0 4 10 -2 22 -13 33 -29 154 -94 161 -86 4 3 7 2 7 -3 0 -6 19 -18 43 -28
23 -10 58 -26 79 -36 20 -10 39 -16 42 -13 3 4 6 0 6 -7 0 -7 3 -10 7 -7 3 4
12 2 20 -4 7 -6 13 -8 13 -4 0 4 11 0 25 -9 13 -9 33 -16 43 -16 10 0 22 -3
26 -7 3 -4 16 -8 28 -10 12 -2 27 -8 35 -14 7 -6 13 -8 13 -5 0 4 8 2 19 -3
10 -6 33 -13 52 -16 18 -3 38 -10 45 -15 6 -6 14 -7 17 -4 3 3 11 2 18 -2 7
-4 22 -9 33 -10 12 -1 32 -5 46 -8 32 -9 58 -14 160 -30 14 -2 54 -7 90 -11
36 -3 83 -8 105 -11 74 -7 345 -9 345 -2 0 4 19 7 43 7 62 -1 184 14 297 37
14 3 34 6 45 7 11 2 26 6 33 11 7 4 16 5 19 2 3 -3 12 -1 19 5 8 6 20 9 28 6
8 -3 16 -2 18 3 2 5 17 12 33 15 39 8 59 13 63 15 1 2 7 4 12 5 6 1 12 4 15 5
3 1 8 3 13 5 4 1 15 5 24 9 9 4 25 9 35 11 10 2 19 4 21 4 1 1 5 2 10 3 4 1
41 17 82 36 81 37 114 47 105 31 -4 -5 -11 -7 -16 -4 -5 4 -9 1 -9 -6 0 -7 -3
-10 -6 -7 -3 4 -40 -10 -82 -29 -174 -79 -447 -155 -674 -188 -150 -22 -421
-30 -568 -16 -324 29 -612 106 -878 232 -57 27 -108 49 -113 49 -5 0 -9 4 -9
8 0 4 -16 14 -35 21 -19 7 -35 17 -35 22 0 5 -3 8 -7 7 -13 -3 -63 24 -63 34
0 4 -7 8 -15 8 -8 0 -15 5 -15 11 0 5 -4 8 -8 5 -5 -3 -19 4 -30 15 -12 11
-22 17 -22 13 0 -4 -9 3 -19 15 -11 12 -22 21 -24 19 -3 -2 -17 7 -31 19 -15
13 -31 23 -36 23 -5 0 -15 9 -22 20 -7 11 -16 20 -20 20 -10 0 -41 25 -85 67
-19 18 -37 33 -40 33 -8 0 -213 206 -213 214 0 4 -15 22 -32 41 -44 46 -59 63
-58 71 1 3 -7 13 -18 22 -19 17 -112 148 -112 157 0 3 -8 15 -18 26 -11 10
-25 32 -33 47 -7 15 -21 38 -30 52 -9 14 -41 75 -72 135 -293 582 -355 1250
-172 1883 76 266 262 645 377 773 10 10 15 19 10 19 -4 0 2 7 12 15 11 8 17
15 13 15 -7 0 20 35 56 72 9 10 17 21 17 25 0 31 451 455 467 439 2 -2 18 10
34 25 17 16 35 29 40 29 6 0 19 9 31 20 11 10 36 26 54 35 18 8 36 20 39 25 4
6 11 8 16 5 5 -4 9 -1 9 5 0 6 5 8 10 5 6 -3 10 -2 10 4 0 10 129 76 143 73 4
-1 7 3 7 9 0 5 5 7 10 4 6 -3 10 -2 10 3 0 9 37 25 53 23 4 -1 7 4 7 11 0 6 3
8 6 5 4 -3 16 -1 28 5 11 7 24 11 29 10 4 -1 7 3 7 10 0 6 3 9 6 6 3 -3 32 4
64 17 32 13 61 20 64 17 3 -3 6 0 6 7 0 7 5 9 10 6 6 -3 10 -2 10 3 0 5 6 9
13 10 14 1 51 10 55 12 3 3 11 5 55 14 20 5 40 12 43 17 3 5 10 7 15 4 5 -4
15 -3 22 2 6 4 17 8 22 8 41 4 116 19 119 24 2 3 20 6 40 7 19 0 33 -3 31 -6z
m670 -15 c28 -2 73 -7 100 -11 28 -4 66 -8 85 -10 19 -1 35 -3 35 -4 0 -3 26
-8 75 -15 14 -2 25 -4 25 -5 0 -2 9 -4 20 -6 27 -4 164 -40 245 -64 25 -7 48
-13 53 -12 4 1 7 -3 7 -9 0 -5 4 -8 9 -4 5 3 12 1 16 -5 4 -6 11 -8 16 -5 5 4
9 1 9 -6 0 -7 3 -9 7 -6 3 4 12 2 20 -4 7 -6 13 -8 13 -4 0 4 11 0 25 -9 14
-9 25 -13 25 -10 0 4 9 -1 20 -11 11 -10 20 -14 20 -10 0 5 5 4 12 -3 7 -7 20
-12 30 -12 10 0 18 -5 18 -12 0 -6 3 -8 7 -5 3 4 20 -2 37 -12 17 -11 55 -31
84 -46 28 -14 52 -30 52 -36 0 -5 8 -9 18 -9 19 0 190 -114 296 -198 79 -63
306 -281 306 -294 0 -5 16 -23 35 -40 20 -17 33 -33 31 -36 -3 -2 6 -13 19
-24 14 -11 23 -24 20 -29 -4 -5 -2 -9 3 -9 11 0 154 -205 151 -216 0 -4 3 -10
8 -13 15 -11 153 -280 153 -298 0 -6 7 -16 15 -23 8 -7 13 -16 10 -20 -3 -5 5
-30 17 -57 12 -26 22 -50 23 -53 3 -12 38 -127 43 -140 7 -21 7 -20 16 -67 4
-24 12 -43 17 -43 6 0 8 -4 4 -9 -3 -5 3 -52 14 -103 21 -102 30 -157 37 -233
2 -27 7 -75 10 -105 8 -73 8 -299 0 -307 -3 -3 -6 -27 -6 -52 0 -25 -7 -86
-15 -136 -8 -49 -16 -106 -19 -125 -3 -19 -14 -68 -25 -109 -11 -41 -19 -77
-19 -80 1 -3 -2 -13 -5 -21 -16 -36 -36 -114 -31 -122 3 -4 1 -8 -4 -8 -7 0
-15 -20 -37 -90 -1 -3 -10 -23 -19 -45 -10 -22 -27 -60 -38 -85 -56 -128 -201
-380 -220 -380 -5 0 -7 -4 -4 -8 3 -5 -7 -22 -22 -38 -15 -16 -29 -34 -30 -39
-4 -11 -40 -58 -87 -113 -38 -45 -249 -257 -295 -297 -75 -65 -128 -105 -139
-105 -6 0 -11 -4 -11 -9 0 -4 -18 -20 -40 -35 -22 -14 -40 -23 -40 -19 0 4 -7
-2 -15 -13 -8 -10 -15 -16 -15 -12 0 5 -12 -2 -26 -15 -14 -12 -29 -22 -32
-22 -4 0 -15 -6 -25 -15 -10 -8 -20 -13 -24 -12 -3 2 -9 -1 -13 -8 -4 -6 -15
-12 -24 -14 -10 -1 -21 -7 -24 -12 -8 -12 -43 -28 -54 -26 -5 1 -8 -3 -8 -9 0
-5 -4 -7 -10 -4 -5 3 -10 2 -10 -4 0 -9 -74 -38 -76 -30 -1 2 -11 -5 -23 -15
-12 -11 -21 -15 -21 -11 0 4 -9 0 -20 -10 -11 -10 -20 -15 -20 -12 0 3 -26 -5
-57 -17 -67 -27 -96 -37 -103 -38 -3 0 -20 -6 -37 -13 -18 -8 -33 -12 -33 -10
0 3 -12 0 -27 -6 -16 -6 -41 -13 -58 -16 -16 -3 -38 -9 -47 -14 -10 -5 -18 -8
-18 -5 0 3 -15 0 -32 -5 -47 -13 -108 -25 -183 -34 -22 -2 -62 -7 -90 -11
-132 -18 -436 -18 -551 0 -34 5 -91 12 -159 21 -11 1 -31 5 -45 9 -14 4 -38 9
-55 11 -16 2 -30 4 -30 5 0 2 -32 10 -55 14 -8 2 -35 9 -60 15 -25 7 -45 12
-45 10 0 -1 -10 3 -23 10 -13 7 -33 15 -45 17 -36 8 -40 10 -78 26 -20 9 -47
19 -60 23 -13 4 -45 18 -70 31 -26 13 -49 20 -53 17 -3 -4 -6 -1 -6 5 0 7 -3
11 -7 10 -15 -4 -53 13 -53 23 0 6 -4 8 -9 4 -5 -3 -16 1 -24 9 -8 8 -17 12
-21 9 -3 -4 -6 -1 -6 5 0 7 -7 12 -15 12 -8 0 -15 4 -15 10 0 5 -3 9 -7 8 -10
-3 -76 32 -84 44 -3 5 -8 9 -10 8 -7 -3 -69 35 -69 43 0 4 -7 7 -15 7 -9 0
-18 7 -21 15 -4 8 -10 13 -14 10 -4 -2 -22 9 -39 25 -17 17 -31 27 -31 23 -1
-5 -10 3 -20 16 -11 13 -20 20 -20 16 0 -4 -23 13 -52 37 -68 56 -299 280
-294 285 2 2 -11 19 -28 37 -43 47 -61 69 -61 78 0 4 -10 15 -23 23 -12 9 -20
21 -17 26 4 5 2 9 -3 9 -13 0 -172 245 -172 265 0 8 -4 15 -8 15 -8 0 -112
208 -112 222 0 4 -10 28 -22 55 -12 26 -21 51 -20 55 1 5 -3 8 -9 8 -5 0 -8 4
-4 9 4 8 -7 45 -40 126 -4 11 -9 25 -9 30 -7 50 -20 95 -27 95 -6 0 -8 4 -5 9
3 4 -1 39 -9 77 -19 85 -42 251 -51 364 -14 175 -3 365 33 570 9 52 17 106 17
120 1 14 4 27 8 30 4 3 9 21 10 40 2 19 7 38 11 41 4 3 9 17 11 30 2 13 8 36
14 51 9 21 33 98 47 148 1 3 9 22 18 42 10 21 17 39 17 41 0 3 10 26 22 53 12
27 23 51 23 54 0 3 6 14 12 25 6 11 22 40 35 65 59 111 131 230 140 230 5 0 7
4 4 8 -3 5 8 23 24 40 16 18 26 32 22 32 -4 0 2 7 12 15 11 8 17 15 13 15 -4
0 14 26 40 58 27 31 57 68 68 81 56 69 201 213 285 283 107 90 242 188 259
188 6 0 11 4 11 8 0 9 67 44 75 39 2 -1 11 7 19 18 9 11 16 17 16 13 0 -4 9 0
20 10 12 9 23 15 27 14 3 -2 9 0 12 5 11 16 112 64 121 58 6 -4 10 -1 10 5 0
6 5 8 10 5 6 -3 10 -2 10 4 0 5 10 13 23 16 12 4 36 13 52 20 43 18 68 28 83
31 8 1 21 6 30 10 9 4 26 9 36 11 11 2 25 8 31 13 7 5 15 7 18 3 4 -3 7 -1 7
6 0 7 5 9 10 6 6 -3 16 -3 23 2 6 4 15 8 20 9 4 1 8 2 10 4 1 1 11 3 22 5 11
1 40 8 65 14 25 7 54 13 65 15 11 2 20 4 20 6 0 3 54 10 77 11 10 0 20 4 23 8
2 5 18 7 35 5 16 -2 30 0 30 4 0 4 19 8 43 8 64 2 188 12 192 16 4 4 238 -1
310 -7z"/>
</g>
</svg>
